<svg width="20" height="24" viewBox="0 0 20 24" fill="none" xmlns="http://www.w3.org/2000/svg">
<path d="M19 10.4556C19 17.4556 10 23.4556 10 23.4556C10 23.4556 1 17.4556 1 10.4556C1 8.06862 1.94821 5.77943 3.63604 4.09161C5.32387 2.40378 7.61305 1.45557 10 1.45557C12.3869 1.45557 14.6761 2.40378 16.364 4.09161C18.0518 5.77943 19 8.06862 19 10.4556Z" stroke="#999999" stroke-linecap="round" stroke-linejoin="round"/>
<path d="M10 13.4556C11.6569 13.4556 13 12.1124 13 10.4556C13 8.79871 11.6569 7.45557 10 7.45557C8.34315 7.45557 7 8.79871 7 10.4556C7 12.1124 8.34315 13.4556 10 13.4556Z" stroke="#999999" stroke-linecap="round" stroke-linejoin="round"/>
</svg>
