<svg width="22" height="20" viewBox="0 0 22 20" fill="none" xmlns="http://www.w3.org/2000/svg">
<path d="M11 5.45557C11 4.3947 10.5786 3.37728 9.82843 2.62714C9.07828 1.87699 8.06087 1.45557 7 1.45557H1V16.4556H8C8.79565 16.4556 9.55871 16.7716 10.1213 17.3342C10.6839 17.8969 11 18.6599 11 19.4556M11 5.45557V19.4556M11 5.45557C11 4.3947 11.4214 3.37728 12.1716 2.62714C12.9217 1.87699 13.9391 1.45557 15 1.45557H21V16.4556H14C13.2044 16.4556 12.4413 16.7716 11.8787 17.3342C11.3161 17.8969 11 18.6599 11 19.4556" stroke="#999999" stroke-linecap="round" stroke-linejoin="round"/>
</svg>
