<svg width="38" height="19" viewBox="0 0 38 19" fill="none" xmlns="http://www.w3.org/2000/svg">
<rect width="38" height="19" rx="4" fill="#FE2472"/>
<path d="M7.4375 3.72656V15H8.84375V10.9766H11.6797C13.7969 10.9766 15.3047 9.48438 15.3047 7.375C15.3047 5.22656 13.8281 3.72656 11.6953 3.72656H7.4375ZM8.84375 4.97656H11.3281C12.9609 4.97656 13.8594 5.82812 13.8594 7.375C13.8594 8.86719 12.9297 9.72656 11.3281 9.72656H8.84375V4.97656ZM17.4375 15H18.7812V9.78125C18.7812 8.59375 19.7109 7.73438 20.9922 7.73438C21.2578 7.73438 21.7422 7.78125 21.8516 7.8125V6.46875C21.6797 6.44531 21.3984 6.42969 21.1797 6.42969C20.0625 6.42969 19.0938 7.00781 18.8438 7.82812H18.7188V6.57812H17.4375V15ZM26.7578 13.9375C25.1641 13.9375 24.2656 12.7812 24.2656 10.7891C24.2656 8.78906 25.1641 7.64062 26.7578 7.64062C28.3516 7.64062 29.25 8.78906 29.25 10.7891C29.25 12.7812 28.3516 13.9375 26.7578 13.9375ZM26.7578 15.1484C29.1562 15.1484 30.6406 13.4922 30.6406 10.7891C30.6406 8.07812 29.1562 6.42969 26.7578 6.42969C24.3594 6.42969 22.875 8.07812 22.875 10.7891C22.875 13.4922 24.3594 15.1484 26.7578 15.1484Z" fill="white"/>
</svg>
