<svg width="28" height="29" viewBox="0 0 28 29" fill="none" xmlns="http://www.w3.org/2000/svg">
<path d="M14 5.28738C12.1435 5.28738 10.363 6.02488 9.05025 7.33764C7.7375 8.65039 7 10.4309 7 12.2874V17.2874C7 18.083 6.68393 18.8461 6.12132 19.4087C5.55871 19.9713 4.79565 20.2874 4 20.2874H24C23.2044 20.2874 22.4413 19.9713 21.8787 19.4087C21.3161 18.8461 21 18.083 21 17.2874V12.2874C21 10.4309 20.2625 8.65039 18.9497 7.33764C17.637 6.02488 15.8565 5.28738 14 5.28738ZM14 5.28738V2.28738M15.73 24.2874C15.5542 24.5905 15.3018 24.842 14.9982 25.0169C14.6946 25.1918 14.3504 25.2838 14 25.2838C13.6496 25.2838 13.3054 25.1918 13.0018 25.0169C12.6982 24.842 12.4458 24.5905 12.27 24.2874" stroke="#FF647C" stroke-linecap="round" stroke-linejoin="round"/>
</svg>
